<?xml version="1.0" standalone="no"?>
<!DOCTYPE svg PUBLIC "-//W3C//DTD SVG 20010904//EN"
 "http://www.w3.org/TR/2001/REC-SVG-20010904/DTD/svg10.dtd">
<svg version="1.0" xmlns="http://www.w3.org/2000/svg"
 width="903.000000pt" height="904.000000pt" viewBox="0 0 903.000000 904.000000"
 preserveAspectRatio="xMidYMid meet">

<g transform="translate(0.000000,904.000000) scale(0.100000,-0.100000)"
fill="#000000" stroke="none">
<path d="M4240 9023 c-1966 -119 -3634 -1510 -4105 -3423 -80 -329 -114 -600
-122 -981 -6 -314 3 -482 38 -739 124 -895 522 -1736 1141 -2410 705 -769
1649 -1269 2668 -1414 502 -72 1029 -61 1505 30 584 112 1117 328 1614 652
860 560 1513 1407 1826 2367 328 1005 293 2120 -97 3095 -115 288 -315 657
-490 904 -196 278 -498 612 -743 823 -754 651 -1645 1020 -2640 1093 -129 9
-463 11 -595 3z m674 -88 c86 -8 202 -22 259 -30 1231 -185 2339 -889 3032
-1930 398 -598 633 -1240 721 -1970 23 -187 26 -733 6 -920 -142 -1310 -811
-2449 -1882 -3203 -337 -236 -750 -443 -1152 -576 -1307 -431 -2757 -222
-3892 562 -245 169 -431 328 -666 568 -1222 1249 -1590 3105 -938 4729 366
911 1022 1673 1878 2180 563 334 1250 548 1920 598 138 10 572 6 714 -8z"/>
<path d="M4020 8621 l0 -68 47 -6 c29 -3 52 -12 60 -23 18 -25 15 -676 -4
-695 -6 -6 -32 -14 -57 -16 l-46 -6 0 -68 0 -69 260 0 260 0 0 70 0 70 -31 0
c-60 0 -69 12 -69 99 l0 79 66 56 67 57 54 -93 c108 -183 109 -198 17 -198
l-34 0 0 -68 0 -69 143 -6 c78 -4 204 -7 280 -7 l137 0 0 75 0 75 -35 0 c-69
0 -83 16 -224 255 l-135 227 100 95 c125 118 176 153 226 153 l38 0 0 75 0 75
-255 0 -255 0 0 -75 0 -74 58 -3 c95 -5 87 -22 -93 -187 l-155 -142 0 146 c0
82 5 155 10 166 7 12 21 19 40 19 l30 0 0 75 0 75 -250 0 -250 0 0 -69z"/>
<path d="M3333 8553 c-57 -22 -63 -27 -63 -54 l0 -29 -52 6 c-121 13 -292 -51
-388 -146 -97 -96 -137 -210 -127 -365 9 -151 80 -322 180 -430 64 -71 117
-105 196 -129 199 -59 479 54 569 229 19 38 27 70 30 133 5 89 -13 201 -33
208 -7 3 -39 -6 -71 -19 -46 -19 -58 -28 -56 -43 2 -10 6 -53 9 -94 4 -69 3
-80 -24 -130 -22 -42 -39 -59 -75 -78 -149 -76 -260 34 -369 365 -41 124 -46
235 -13 279 32 44 68 66 116 71 75 9 149 -43 224 -157 15 -22 30 -39 33 -38 4
2 37 14 74 27 37 14 67 29 67 35 0 23 -146 386 -155 385 -5 0 -38 -12 -72 -26z"/>
<path d="M6440 8179 c-23 -33 -41 -61 -39 -63 45 -28 79 -61 79 -75 0 -9 -76
-125 -168 -257 -93 -131 -177 -255 -188 -274 -29 -54 -27 -190 5 -253 45 -93
177 -203 306 -256 82 -34 200 -35 263 -3 66 35 105 80 276 325 88 126 166 232
175 236 19 10 37 5 74 -22 16 -11 32 -16 36 -11 4 5 24 32 43 60 l36 52 -166
117 c-91 64 -170 119 -176 121 -6 2 -28 -22 -50 -52 l-38 -56 41 -38 c31 -28
39 -43 34 -56 -4 -11 -79 -122 -167 -248 -173 -246 -211 -286 -276 -286 -49 0
-119 38 -147 80 -27 38 -29 76 -8 126 20 48 332 492 354 503 18 10 60 -6 92
-35 15 -13 20 -10 54 38 21 28 38 57 39 64 1 11 -62 57 -360 267 l-81 57 -43
-61z"/>
<path d="M5404 7915 c-20 -63 -35 -117 -33 -119 5 -4 363 -116 372 -116 8 0
78 222 72 229 -4 3 -362 120 -372 121 -1 0 -19 -52 -39 -115z"/>
<path d="M1903 7773 l-212 -166 45 -58 45 -58 43 30 c36 26 46 29 62 19 24
-15 406 -503 417 -533 7 -18 1 -28 -32 -58 l-40 -36 45 -57 c31 -40 49 -55 57
-48 308 237 416 326 409 336 -4 6 -25 33 -46 59 l-38 48 -22 -19 c-41 -38 -62
-43 -87 -23 -26 20 -388 481 -408 519 -11 22 -9 27 28 61 l41 38 -42 56 c-24
31 -45 56 -48 56 -3 0 -100 -75 -217 -166z"/>
<path d="M4210 7289 c-412 -50 -791 -180 -1134 -388 -736 -446 -1219 -1199
-1327 -2066 -19 -148 -16 -513 5 -665 60 -444 199 -818 440 -1185 428 -652
1135 -1104 1906 -1220 453 -68 945 -20 1370 135 176 64 424 191 588 301 691
463 1132 1182 1226 1999 20 172 20 467 1 634 -41 353 -130 642 -294 961 -137
267 -288 474 -505 691 -426 426 -956 695 -1556 790 -123 19 -599 28 -720 13z
m650 -83 c1072 -145 1951 -896 2255 -1925 77 -260 108 -484 108 -766 -1 -540
-150 -1038 -448 -1485 -113 -171 -196 -273 -344 -421 -434 -434 -964 -694
-1591 -780 -143 -20 -526 -17 -675 4 -629 92 -1149 356 -1585 803 -520 533
-790 1227 -767 1964 7 200 22 326 63 508 174 785 706 1467 1425 1828 335 168
642 251 1059 288 83 7 394 -4 500 -18z"/>
<path d="M4226 5982 c-159 -471 -292 -860 -295 -864 -3 -4 -396 -139 -873
-300 -477 -161 -865 -294 -864 -296 2 -1 390 -133 862 -293 473 -159 864 -296
870 -304 5 -7 140 -399 299 -869 159 -471 291 -853 294 -850 3 3 137 393 297
867 l291 861 861 291 c474 160 864 293 867 296 3 4 -252 93 -567 199 -1207
407 -1159 389 -1173 424 -7 17 -137 402 -290 856 -153 454 -281 828 -284 832
-4 4 -137 -378 -295 -850z m484 3 c100 -286 210 -602 245 -701 l63 -182 -241
-161 c-134 -89 -246 -161 -250 -161 -4 0 -7 390 -7 867 0 476 2 864 4 862 2
-2 86 -238 186 -524z m-611 -1213 c89 -134 161 -245 161 -248 0 -2 -392 -4
-872 -4 -479 0 -868 3 -864 7 11 11 1390 493 1403 490 7 -1 84 -111 172 -245z
m2410 -256 c-4 -4 -1373 -482 -1396 -488 -9 -2 -333 472 -333 488 0 2 390 4
867 4 476 0 864 -2 862 -4z m-1989 -1128 c0 -479 -2 -869 -5 -867 -14 15 -495
1412 -488 1419 15 15 478 320 486 320 4 0 7 -392 7 -872z"/>
<path d="M7677 7176 c-26 -18 -50 -36 -53 -39 -4 -3 3 -21 15 -40 41 -66 45
-62 -246 -254 -148 -97 -281 -181 -296 -187 -30 -12 -38 -7 -78 54 l-15 23
-62 -41 -61 -42 146 -223 c80 -122 149 -225 152 -229 5 -6 90 43 120 69 3 2
-5 21 -17 42 -37 66 -33 73 85 152 58 40 112 72 118 73 7 1 44 -46 83 -104
120 -180 212 -247 322 -237 68 6 126 34 187 90 68 62 86 105 81 193 -3 61 -10
85 -44 151 -46 89 -370 583 -381 582 -5 0 -30 -15 -56 -33z m205 -463 c58
-102 53 -148 -22 -202 -87 -63 -148 -51 -217 43 l-44 60 118 77 c65 43 122 77
127 75 5 -1 22 -25 38 -53z"/>
<path d="M1263 7080 c-76 -39 -149 -133 -329 -425 l-173 -280 59 -37 c33 -21
61 -38 63 -38 3 0 16 18 31 40 17 25 34 40 47 40 21 0 525 -305 567 -343 27
-25 27 -37 2 -87 l-20 -39 61 -37 c33 -20 64 -32 68 -28 10 12 281 453 281
458 0 2 -28 20 -61 41 -53 33 -63 36 -71 22 -25 -46 -61 -77 -80 -71 -32 10
-220 127 -225 140 -2 7 19 50 48 96 81 129 111 200 117 278 6 86 -8 128 -61
182 -94 96 -234 134 -324 88z m98 -305 c79 -52 91 -107 43 -201 -15 -30 -32
-58 -37 -61 -8 -5 -247 135 -247 145 0 25 83 129 115 143 31 13 84 3 126 -26z"/>
<path d="M7904 4868 c-21 -65 -42 -118 -46 -118 -5 0 -76 34 -158 75 -83 41
-150 73 -150 70 0 -3 33 -72 74 -153 l74 -149 -104 -33 c-57 -19 -104 -37
-104 -40 0 -3 47 -21 104 -40 l103 -33 -73 -153 c-41 -84 -74 -155 -74 -158 0
-3 67 28 150 69 82 41 154 75 159 75 5 0 26 -51 47 -112 l37 -113 36 107 c20
59 39 109 42 113 4 3 75 -28 158 -69 83 -42 153 -76 156 -76 3 0 -29 67 -70
150 -41 82 -75 154 -75 159 0 5 45 24 100 42 55 19 100 36 100 39 0 3 -45 21
-100 39 -119 38 -117 17 -19 213 38 76 69 140 69 142 0 3 -69 -28 -152 -69
-84 -41 -157 -75 -163 -75 -6 0 -27 48 -46 108 l-36 107 -39 -117z m36 -139
l0 -160 -30 21 c-28 20 -30 26 -30 83 0 42 9 87 27 140 15 42 29 77 30 77 2 0
3 -72 3 -161z m290 1 c-42 -85 -65 -120 -75 -116 -7 2 -30 8 -49 12 -20 3 -36
9 -36 12 0 9 213 222 218 218 2 -2 -24 -59 -58 -126z m-447 -106 c-71 -29 -65
-33 -119 82 -27 59 -51 112 -53 118 -2 6 42 -34 98 -89 l102 -100 -28 -11z
m452 -69 l90 -34 -162 0 c-90 -1 -163 2 -163 5 0 3 9 19 21 35 18 26 26 29 72
28 34 0 84 -12 142 -34z m-365 -65 c-20 -28 -26 -30 -84 -30 -54 0 -196 36
-214 55 -3 3 68 5 157 5 l162 0 -21 -30z m111 -47 c26 -16 29 -22 29 -71 0
-45 -47 -213 -65 -231 -3 -2 -5 68 -5 157 0 89 3 162 6 162 3 0 19 -8 35 -17z
m-171 -42 c0 -3 -47 -53 -105 -111 -58 -58 -105 -102 -105 -98 0 6 100 214
114 236 7 11 96 -14 96 -27z m404 -58 c90 -180 90 -181 -34 -58 -60 60 -110
112 -110 116 0 7 57 26 82 28 13 1 31 -25 62 -86z"/>
<path d="M1081 4948 c-5 -13 -21 -62 -37 -110 -15 -49 -32 -88 -36 -88 -5 0
-76 34 -158 75 -83 41 -150 73 -150 70 0 -3 33 -72 74 -153 l74 -149 -104 -33
c-57 -19 -104 -37 -104 -40 0 -3 47 -21 104 -40 l104 -35 -74 -154 c-41 -85
-74 -156 -74 -158 0 -2 67 31 150 72 82 41 154 75 159 75 5 0 26 -51 47 -112
l37 -113 36 107 c20 59 39 109 42 113 4 3 75 -28 158 -69 83 -42 153 -76 156
-76 3 0 -29 67 -70 150 -41 82 -75 154 -75 158 0 5 45 24 100 43 55 19 100 36
100 39 0 3 -45 20 -100 39 -55 18 -100 34 -100 36 0 2 34 74 75 160 41 87 75
159 75 161 0 2 -72 -32 -160 -76 -87 -44 -161 -76 -163 -72 -2 4 -19 51 -36
105 -18 53 -35 97 -37 97 -3 0 -8 -10 -13 -22z m5 -365 c-2 -3 -16 3 -30 12
-23 16 -26 24 -26 78 0 41 9 87 28 139 l27 78 3 -152 c1 -83 1 -153 -2 -155z
m294 147 c-42 -85 -65 -120 -75 -116 -7 2 -30 8 -49 12 -20 3 -36 9 -36 12 0
9 213 222 218 218 2 -2 -24 -59 -58 -126z m-447 -106 c-70 -28 -64 -32 -118
83 -28 58 -52 111 -54 117 -2 6 42 -34 98 -89 l102 -100 -28 -11z m447 -66
l95 -33 -159 -3 c-87 -1 -161 0 -163 2 -3 3 5 19 17 35 19 27 27 31 68 31 27
0 87 -14 142 -32z m-346 -50 c-23 -41 -38 -48 -99 -48 -53 0 -195 36 -213 55
-3 3 68 5 157 5 127 0 161 -3 155 -12z m97 -65 c26 -16 29 -22 29 -73 0 -51
-40 -190 -62 -214 -4 -6 -8 61 -8 147 0 86 3 157 6 157 3 0 19 -8 35 -17z
m-268 -145 c-59 -59 -109 -106 -111 -104 -2 2 24 58 57 124 l60 120 51 -16 51
-16 -108 -108z m508 31 c81 -163 80 -164 -40 -44 -61 60 -111 112 -111 116 0
7 57 26 82 28 13 1 32 -28 69 -100z"/>
<path d="M2004 2285 c-62 -13 -149 -52 -194 -87 -61 -47 -147 -139 -191 -206
-75 -114 -93 -169 -93 -288 -1 -96 1 -103 36 -175 63 -128 202 -249 326 -285
122 -36 263 3 367 100 l50 46 -54 50 -54 49 -41 -33 c-92 -75 -182 -94 -260
-56 -124 60 -132 165 -23 327 66 99 237 272 298 301 80 38 149 25 202 -38 50
-59 46 -137 -13 -254 -17 -32 -30 -62 -30 -66 0 -5 27 -31 59 -59 l59 -51 136
156 c75 85 136 159 136 163 0 4 -24 28 -53 53 -50 43 -54 45 -79 32 -25 -13
-26 -13 -62 60 -63 129 -208 240 -345 266 -68 13 -101 12 -177 -5z"/>
<path d="M6845 2287 c-145 -38 -317 -177 -388 -313 -73 -142 -72 -279 2 -429
51 -103 122 -189 208 -254 94 -71 156 -93 274 -99 114 -5 173 9 267 65 300
178 387 488 212 751 -81 121 -198 220 -311 263 -67 26 -195 34 -264 16z m35
-244 c96 -48 286 -256 346 -380 38 -77 42 -129 12 -172 -54 -80 -119 -93 -209
-45 -98 54 -285 261 -341 379 -49 105 -35 177 46 226 43 26 83 24 146 -8z"/>
<path d="M5858 1628 c-51 -17 -58 -23 -58 -46 l0 -27 -93 3 c-75 3 -105 0
-157 -18 -159 -53 -255 -150 -302 -304 -17 -58 -20 -86 -16 -175 12 -244 136
-460 316 -549 72 -35 80 -37 171 -36 139 1 236 41 338 139 l47 45 23 -22 c23
-22 23 -22 81 -4 114 37 109 10 40 216 -33 99 -57 188 -54 196 3 9 24 23 46
31 23 9 39 21 37 27 -3 6 -13 37 -23 69 -10 31 -21 57 -24 57 -6 0 -295 -97
-432 -145 l-46 -16 22 -67 c13 -37 26 -66 30 -65 3 1 23 5 43 9 48 9 65 -12
99 -121 30 -96 25 -117 -31 -141 -111 -46 -198 16 -273 198 -80 192 -112 378
-77 451 19 41 45 61 98 75 77 22 161 -32 227 -146 l35 -59 76 25 76 25 -66
199 c-48 144 -70 198 -81 197 -8 0 -41 -10 -72 -21z"/>
<path d="M2870 1313 c-144 -181 -275 -338 -293 -351 -31 -22 -60 -25 -98 -8
-11 5 -18 1 -21 -11 -3 -10 -15 -41 -26 -69 l-21 -51 183 -72 c100 -39 187
-71 192 -71 6 0 22 29 36 65 l26 65 -44 19 c-30 14 -44 26 -44 39 0 20 79 131
93 132 7 0 217 -79 224 -84 7 -5 -17 -160 -25 -168 -7 -7 -27 -5 -62 7 -28 9
-53 15 -54 14 -8 -11 -48 -130 -45 -133 6 -5 500 -196 507 -196 7 0 52 108 52
126 0 5 -19 18 -42 29 -42 20 -43 21 -46 75 -2 30 15 233 38 450 22 217 37
397 33 401 -7 7 -289 119 -299 119 -2 0 -121 -147 -264 -327z m240 -80 c-7
-71 -16 -135 -19 -144 -5 -15 -13 -14 -74 10 -37 14 -65 31 -63 37 8 20 161
233 165 229 2 -3 -2 -62 -9 -132z"/>
<path d="M3850 1275 l0 -75 43 0 c75 0 72 8 69 -242 -3 -321 -12 -456 -29
-474 -8 -8 -34 -14 -59 -14 l-44 0 0 -69 0 -69 63 -6 c34 -3 158 -7 275 -8
l212 -3 0 73 0 72 -41 0 c-78 0 -79 1 -79 170 l0 150 48 0 c59 0 116 -16 133
-37 10 -11 16 -62 20 -167 5 -136 8 -156 30 -196 42 -78 160 -116 275 -91 101
23 154 107 154 243 l0 58 -44 0 -43 0 -6 -57 c-7 -66 -26 -93 -49 -69 -11 11
-16 48 -20 144 -7 161 -19 191 -90 225 -49 24 -50 24 -22 30 46 9 109 61 133
109 42 87 22 228 -40 285 -72 66 -159 79 -591 87 l-298 6 0 -75z m595 -109
c36 -23 48 -54 48 -116 0 -100 -36 -130 -158 -130 l-75 0 0 74 c0 40 3 101 7
136 l6 63 74 -6 c42 -3 85 -12 98 -21z"/>
</g>
</svg>
